<svg xmlns="http://www.w3.org/2000/svg" shape-rendering="geometricPrecision" text-rendering="geometricPrecision" image-rendering="optimizeQuality" fill-rule="evenodd" clip-rule="evenodd" viewBox="0 0 512 356.18"><path fill="red" fill-rule="nonzero" d="M28.137 0H483.86C499.337 0 512 12.663 512 28.14v299.9c0 15.477-12.663 28.14-28.14 28.14H28.137C12.663 356.18 0 343.517 0 328.04V28.14C0 12.663 12.663 0 28.137 0z"/><path fill="#FFED00" d="M271.711 107.303l2.046-39.431a.35.35 0 00-.692-.097l-10.112 38.006a4.455 4.455 0 108.758 1.521v.001zm10.885 3.327l8.227-38.617a.35.35 0 00-.233-.409.354.354 0 00-.435.204l-15.967 35.939a4.456 4.456 0 108.408 2.883zm10.225 5l14.205-36.841a.35.35 0 00-.168-.439.35.35 0 00-.46.132l-21.427 32.977a4.454 4.454 0 001.754 6.325 4.454 4.454 0 006.096-2.154zm9.312 6.537l19.793-34.164a.35.35 0 00-.572-.402l-26.322 29.218a4.453 4.453 0 107.101 5.348zm8.178 7.904l24.869-30.667a.35.35 0 00-.025-.47.349.349 0 00-.478-.017l-30.55 24.767a4.453 4.453 0 00-.279 6.557 4.451 4.451 0 006.463-.17zm6.847 9.079l29.34-26.422a.352.352 0 00-.421-.558l-34.031 19.711a4.454 4.454 0 00-1.298 6.433 4.454 4.454 0 006.41.836zm5.348 10.043l33.112-21.508a.35.35 0 00-.329-.616l-36.695 14.143a4.454 4.454 0 103.912 7.981zm3.702 10.763l36.085-16.027a.349.349 0 00.191-.429.349.349 0 00-.419-.231l-38.465 8.19a4.455 4.455 0 102.608 8.497zm1.96 11.213l38.159-10.147a.35.35 0 00-.122-.689l-39.274 2.033a4.455 4.455 0 101.237 8.803zm.19 11.369l39.27-4.1a.35.35 0 00.316-.348.351.351 0 00-.329-.35l-39.113-4.089a4.456 4.456 0 10-.144 8.887zm-1.571 11.263l39.43 2.046a.351.351 0 00.097-.694l-38.004-10.11a4.455 4.455 0 10-1.523 8.758zm-3.327 10.885l38.617 8.227a.347.347 0 00.407-.235.35.35 0 00-.202-.433l-35.939-15.968a4.455 4.455 0 10-2.883 8.409zm-5 10.225l36.84 14.204a.352.352 0 00.441-.167.355.355 0 00-.134-.462l-32.978-21.426a4.454 4.454 0 10-4.382 7.749c.071.037.144.07.213.102zm-6.537 9.311l34.164 19.793a.35.35 0 00.402-.571l-29.219-26.322a4.454 4.454 0 00-6.522.744 4.454 4.454 0 001.175 6.356zm-7.904 8.179l30.667 24.869c.137.113.34.105.469-.024a.35.35 0 00.017-.478l-24.767-30.551a4.453 4.453 0 00-6.557-.279 4.453 4.453 0 000 6.299c.056.058.114.111.171.164zm-9.08 6.847l26.423 29.34a.352.352 0 00.558-.421l-19.711-34.033a4.455 4.455 0 10-7.27 5.114zm-10.042 5.347l21.506 33.112a.35.35 0 00.618-.328l-14.143-36.696a4.455 4.455 0 10-7.981 3.912zm-10.764 3.703l16.027 36.085a.353.353 0 00.43.193.352.352 0 00.231-.421l-8.19-38.465a4.457 4.457 0 00-5.716-3.229 4.456 4.456 0 00-2.782 5.837zm-11.212 1.959l10.147 38.159a.35.35 0 00.689-.122l-2.033-39.273a4.453 4.453 0 00-5.135-4.088 4.454 4.454 0 00-3.71 5.093c.013.078.026.157.042.231zm-11.369.191l4.098 39.27a.352.352 0 00.35.316.35.35 0 00.35-.328l4.089-39.114a4.455 4.455 0 10-8.888-.144h.001zm-11.263-1.571l-2.046 39.43a.351.351 0 00.692.096l10.111-38.004a4.455 4.455 0 10-8.757-1.522zm-10.885-3.327l-8.227 38.618a.35.35 0 00.668.203l15.968-35.938a4.457 4.457 0 00-2.728-5.972 4.458 4.458 0 00-5.681 3.089zm-10.225-5l-14.204 36.841a.349.349 0 00.167.439.349.349 0 00.46-.133l21.427-32.977a4.453 4.453 0 00-1.754-6.325 4.454 4.454 0 00-6.096 2.155zm-9.312-6.537l-19.793 34.164a.35.35 0 00.572.402l26.322-29.22a4.453 4.453 0 00-.744-6.521 4.454 4.454 0 00-6.357 1.175zm-8.178-7.904l-24.869 30.667a.348.348 0 00.025.469.35.35 0 00.478.018l30.55-24.768a4.453 4.453 0 00.279-6.557 4.453 4.453 0 00-6.463.171zm-6.847-9.08l-29.34 26.423a.35.35 0 00.421.557l34.031-19.71a4.454 4.454 0 10-5.112-7.27zm-5.348-10.043l-33.112 21.507a.353.353 0 00-.123.455.352.352 0 00.453.162l36.694-14.142a4.455 4.455 0 10-3.912-7.982zm-3.702-10.763l-36.085 16.027a.348.348 0 00-.191.428.35.35 0 00.419.233l38.465-8.19a4.454 4.454 0 003.227-5.715 4.454 4.454 0 00-5.835-2.783zm-1.961-11.212l-38.158 10.147a.351.351 0 00.122.689l39.274-2.034a4.454 4.454 0 10-1.004-8.845c-.08.012-.158.028-.234.043zm-.189-11.369l-39.27 4.098a.352.352 0 00.013.7l39.113 4.089a4.456 4.456 0 10.144-8.887zm1.571-11.264l-39.43-2.045a.35.35 0 00-.097.692l38.004 10.112a4.453 4.453 0 005.467-3.634 4.455 4.455 0 00-3.944-5.125zm3.327-10.884l-38.617-8.228a.347.347 0 00-.407.234.35.35 0 00.202.434l35.939 15.968a4.454 4.454 0 005.97-2.727 4.455 4.455 0 00-3.087-5.681zm5-10.225l-36.84-14.205a.353.353 0 00-.441.168.353.353 0 00.134.46l32.978 21.428a4.454 4.454 0 104.381-7.749c-.07-.037-.143-.07-.212-.102zm6.537-9.312l-34.164-19.794a.35.35 0 00-.402.573l29.219 26.322a4.454 4.454 0 105.347-7.101zm7.904-8.178L177.314 98.91a.349.349 0 00-.469.024.35.35 0 00-.017.479l24.766 30.548a4.451 4.451 0 006.558.28 4.453 4.453 0 00-.171-6.463v.001zm9.08-6.849l-26.423-29.339a.348.348 0 00-.467-.049.35.35 0 00-.091.471l19.711 34.031a4.455 4.455 0 006.433 1.298 4.453 4.453 0 00.837-6.411v-.001zm10.043-5.347l-21.507-33.111a.35.35 0 00-.618.329l14.143 36.695a4.454 4.454 0 006.153 2.288 4.454 4.454 0 001.829-6.201zm10.763-3.701L221.84 71.797a.352.352 0 00-.43-.193.352.352 0 00-.231.421l8.19 38.465a4.456 4.456 0 108.498-2.608zm11.212-1.961l-10.147-38.158a.351.351 0 00-.689.122l2.033 39.274a4.455 4.455 0 108.803-1.238zm11.369-.189L256.35 66.46a.352.352 0 00-.7.014l-4.089 39.114a4.455 4.455 0 108.887.143v.001zM256 110.455c37.353 0 67.635 30.281 67.635 67.635 0 37.353-30.282 67.636-67.635 67.636-37.353 0-67.635-30.283-67.635-67.636 0-37.354 30.282-67.635 67.635-67.635zm0 8.107c32.876 0 59.526 26.652 59.526 59.528s-26.65 59.528-59.526 59.528c-32.876 0-59.526-26.652-59.526-59.528s26.65-59.528 59.526-59.528zm-49.704 77.395c6.086-12.73 14.498-23.978 24.223-33.44 1.52.998 3.026 2.034 4.515 3.107-10.213 9.762-19.114 21.844-25.829 36.647a53.205 53.205 0 01-2.909-6.314zm53.903-30.726a116.89 116.89 0 014.08 3.586 120.044 120.044 0 014.343-3.396 126.186 126.186 0 00-4.072-3.53 125.938 125.938 0 00-4.351 3.34zm-8.649-6.601a120.775 120.775 0 014.45 3.241 120.775 120.775 0 014.45-3.241 126.74 126.74 0 00-4.45-3.247 126.74 126.74 0 00-4.45 3.247zm.399 13.827a113.928 113.928 0 014.051 3.838 114.794 114.794 0 014.051-3.838 125.92 125.92 0 00-4.051-3.706 125.92 125.92 0 00-4.051 3.706zm-8.57-7.036a119.144 119.144 0 014.342 3.396 117.814 117.814 0 014.08-3.586 126.874 126.874 0 00-4.35-3.34 126.186 126.186 0 00-4.072 3.53zm26.628-12.801a126.812 126.812 0 00-4.474-3.264 125.525 125.525 0 00-5.106 3.08 126.102 126.102 0 014.573 3.182 124.66 124.66 0 015.007-2.998zm7.879 6.532a127.888 127.888 0 00-4.03-3.476 127.564 127.564 0 00-4.788 3.049 113.725 113.725 0 014.124 3.449 124.871 124.871 0 014.694-3.022zm-27.25-12.581a128.127 128.127 0 015.364-3.246 127.482 127.482 0 015.364 3.246 129.853 129.853 0 00-5.364 3.065c-1.77-1.07-3.561-2.09-5.364-3.065zm-8.641 6.049a126.744 126.744 0 014.472-3.264 126.98 126.98 0 015.108 3.08 124.405 124.405 0 00-4.574 3.182 126.047 126.047 0 00-5.006-2.998zm-7.881 6.532a126.767 126.767 0 014.03-3.476c1.609.975 3.207 1.992 4.788 3.049a115.473 115.473 0 00-4.124 3.449 126.517 126.517 0 00-4.694-3.022zm-24.834-7.777a119.03 119.03 0 0116.356 8.091c-8.251 7.865-15.651 17.24-21.74 28.335a53.44 53.44 0 01-1.121-10.911c0-9.246 2.357-17.941 6.505-25.515zm4.524-6.925c6.49 2.097 13.021 4.915 19.411 8.395a117.002 117.002 0 00-4.071 3.416 135.969 135.969 0 00-17.877-8.221 53.191 53.191 0 012.537-3.589v-.001zm5.675-6.276c7.336 1.923 14.795 4.798 22.103 8.54a123.667 123.667 0 00-4.574 3.211c-6.761-3.463-13.705-6.279-20.667-8.529 1-1.116 2.047-2.193 3.138-3.222zm8.277-6.402c.156.056.32.114.494.174l.585.149c7.471 1.944 15.071 4.877 22.512 8.706a128.389 128.389 0 00-5.617 3.253c-7.201-3.507-14.582-6.305-21.952-8.477-.063-.019-.474-.16-.937-.321a53.512 53.512 0 014.915-3.485v.001zm51.951-2.545c-.287.09-.496.159-.559.184-7.774 2.265-15.566 5.222-23.148 8.973-7.438-3.681-15.079-6.596-22.707-8.844l-.441-.129a6.702 6.702 0 01-.575-.176A53 53 0 01256 123.664a52.97 52.97 0 0123.707 5.563zm9.502 6.069a9.049 9.049 0 01-.535.149c-7.52 2.19-15.057 5.03-22.404 8.609a128.389 128.389 0 00-5.617-3.253c7.635-3.929 15.437-6.914 23.097-8.855a4.5 4.5 0 00.563-.132 53.38 53.38 0 014.896 3.483v-.001zm6.45 6.1c-6.962 2.25-13.905 5.066-20.668 8.529a122.795 122.795 0 00-4.573-3.211c7.308-3.742 14.766-6.616 22.103-8.54a53.89 53.89 0 013.138 3.222zm5.075 6.644a135.909 135.909 0 00-17.877 8.221 118.19 118.19 0 00-4.072-3.417c6.39-3.479 12.922-6.297 19.411-8.394a53.12 53.12 0 012.538 3.59zm7.369 39.761c-6.087-11.095-13.488-20.47-21.739-28.335a118.86 118.86 0 0116.356-8.091 52.993 52.993 0 016.505 25.515c0 3.739-.387 7.39-1.122 10.911zm-5.308 14.47c-6.715-14.803-15.616-26.885-25.829-36.647a127.06 127.06 0 014.514-3.107c9.727 9.462 18.139 20.71 24.225 33.44a53.126 53.126 0 01-2.91 6.314zm-8.29 11.365c-6.484-16.712-15.62-30.237-26.337-41.069a126.91 126.91 0 014.281-3.536c11.092 10.907 20.434 24.156 26.51 39.282a53.626 53.626 0 01-4.454 5.323zm-10.047 8.239l-.708-1.902c-5.878-15.877-14.123-28.939-23.843-39.599a127.749 127.749 0 014.056-4.011c11.132 11.62 20.28 25.684 25.781 41.689a53.68 53.68 0 01-5.286 3.823zm-51.498 3.009l.681-2.127c4.904-14.404 12.758-27.241 22.359-38.149 9.601 10.908 17.457 23.745 22.36 38.149l.697 2.119c-6.975 3.358-14.795 5.239-23.056 5.239-8.254 0-16.07-1.878-23.041-5.232v.001zm-10.703-6.833c5.502-16.004 14.648-30.069 25.78-41.688a128.824 128.824 0 014.057 4.01c-9.721 10.661-17.966 23.723-23.843 39.6l-.706 1.903a53.282 53.282 0 01-5.288-3.825zm-9.216-9.737c6.077-15.127 15.418-28.374 26.511-39.283a127.884 127.884 0 014.28 3.536c-10.716 10.832-19.853 24.357-26.337 41.069a53.614 53.614 0 01-4.454-5.322z"/></svg>
